REM DIRINDEX 1\2,1\3\7,1\3\8,1\4\9,1\4\10,1\4\11,1\5\12,1\5\13,1\5\14,1\6\15,1\6\16,1\6\17
REM DIRNAME "folder01","folder02","folder03","folder04","folder05","folder06","folder07","folder08","folder09","folder10","folder11","folder12","folder13","folder14","folder15","folder16","folder17"
TITLE ""
FILE "2Q_t_0953-0970.mp3" MP3
  TRACK 01 AUDIO
    TITLE "0:"
    INDEX 01 00:00:00
  TRACK 02 AUDIO
    TITLE "7:cjc174_3688"
    INDEX 01 00:00:14
  TRACK 03 AUDIO
    TITLE "0:"
    INDEX 01 00:01:16
  TRACK 04 AUDIO
    TITLE "8:cjc174_3689"
    INDEX 01 00:01:69
  TRACK 05 AUDIO
    TITLE "0:"
    INDEX 01 00:03:63
  TRACK 06 AUDIO
    TITLE "7:cjc174_3690"
    INDEX 01 00:04:32
  TRACK 07 AUDIO
    TITLE "0:"
    INDEX 01 00:05:51
  TRACK 08 AUDIO
    TITLE "8:cjc174_3691"
    INDEX 01 00:06:25
  TRACK 09 AUDIO
    TITLE "0:"
    INDEX 01 00:08:31
  TRACK 10 AUDIO
    TITLE "7:cjc174_3692"
    INDEX 01 00:08:74
  TRACK 11 AUDIO
    TITLE "0:"
    INDEX 01 00:10:36
  TRACK 12 AUDIO
    TITLE "8:cjc174_3693"
    INDEX 01 00:11:08
  TRACK 13 AUDIO
    TITLE "0:"
    INDEX 01 00:13:23
  TRACK 14 AUDIO
    TITLE "7:cjc174_3694"
    INDEX 01 00:13:68
  TRACK 15 AUDIO
    TITLE "0:"
    INDEX 01 00:15:27
  TRACK 16 AUDIO
    TITLE "8:cjc174_3695"
    INDEX 01 00:15:75
  TRACK 17 AUDIO
    TITLE "0:"
    INDEX 01 00:16:60
  TRACK 18 AUDIO
    TITLE "7:cjc174_3696"
    INDEX 01 00:17:30
  TRACK 19 AUDIO
    TITLE "0:"
    INDEX 01 00:18:53
  TRACK 20 AUDIO
    TITLE "8:cjc174_3697"
    INDEX 01 00:19:25
  TRACK 21 AUDIO
    TITLE "0:"
    INDEX 01 00:21:44
  TRACK 22 AUDIO
    TITLE "7:cjc174_3698"
    INDEX 01 00:22:14
  TRACK 23 AUDIO
    TITLE "0:"
    INDEX 01 00:23:35
  TRACK 24 AUDIO
    TITLE "8:cjc174_3699"
    INDEX 01 00:24:05
  TRACK 25 AUDIO
    TITLE "0:"
    INDEX 01 00:25:73
  TRACK 26 AUDIO
    TITLE "7:cjc174_3700"
    INDEX 01 00:26:43
  TRACK 27 AUDIO
    TITLE "0:"
    INDEX 01 00:27:60
  TRACK 28 AUDIO
    TITLE "8:cjc174_3701"
    INDEX 01 00:28:30
  TRACK 29 AUDIO
    TITLE "0:"
    INDEX 01 00:31:62
  TRACK 30 AUDIO
    TITLE "7:cjc174_3702"
    INDEX 01 00:32:30
  TRACK 31 AUDIO
    TITLE "0:"
    INDEX 01 00:33:35
  TRACK 32 AUDIO
    TITLE "8:cjc174_3703"
    INDEX 01 00:34:07
  TRACK 33 AUDIO
    TITLE "0:"
    INDEX 01 00:34:74
  TRACK 34 AUDIO
    TITLE "7:cjc174_3704"
    INDEX 01 00:35:44
  TRACK 35 AUDIO
    TITLE "0:"
    INDEX 01 00:37:06
  TRACK 36 AUDIO
    TITLE "8:cjc174_3705"
    INDEX 01 00:37:53
  TRACK 37 AUDIO
    TITLE "0:"
    INDEX 01 00:39:22
  TRACK 38 AUDIO
    TITLE "7:cjc174_3706"
    INDEX 01 00:39:67
  TRACK 39 AUDIO
    TITLE "0:"
    INDEX 01 00:40:73
  TRACK 40 AUDIO
    TITLE "8:cjc174_3707"
    INDEX 01 00:41:41
  TRACK 41 AUDIO
    TITLE "0:"
    INDEX 01 00:44:19
  TRACK 42 AUDIO
    TITLE "7:cjc174_3708"
    INDEX 01 00:44:64
  TRACK 43 AUDIO
    TITLE "0:"
    INDEX 01 00:46:14
  TRACK 44 AUDIO
    TITLE "8:cjc174_3709"
    INDEX 01 00:46:69
  TRACK 45 AUDIO
    TITLE "0:"
    INDEX 01 00:50:55
  TRACK 46 AUDIO
    TITLE "7:cjc174_3710"
    INDEX 01 00:51:27
  TRACK 47 AUDIO
    TITLE "0:"
    INDEX 01 00:52:31
  TRACK 48 AUDIO
    TITLE "8:cjc174_3711"
    INDEX 01 00:53:09
  TRACK 49 AUDIO
    TITLE "0:"
    INDEX 01 00:54:20
  TRACK 50 AUDIO
    TITLE "7:cjc174_3712"
    INDEX 01 00:54:63
  TRACK 51 AUDIO
    TITLE "0:"
    INDEX 01 00:56:03
  TRACK 52 AUDIO
    TITLE "8:cjc174_3713"
    INDEX 01 00:56:50
  TRACK 53 AUDIO
    TITLE "0:"
    INDEX 01 00:58:57
  TRACK 54 AUDIO
    TITLE "7:cjc174_3714"
    INDEX 01 00:59:27
  TRACK 55 AUDIO
    TITLE "0:"
    INDEX 01 01:00:16
  TRACK 56 AUDIO
    TITLE "8:cjc174_3715"
    INDEX 01 01:00:71
  TRACK 57 AUDIO
    TITLE "0:"
    INDEX 01 01:05:29
  TRACK 58 AUDIO
    TITLE "7:cjc174_3716"
    INDEX 01 01:05:72
  TRACK 59 AUDIO
    TITLE "0:"
    INDEX 01 01:07:11
  TRACK 60 AUDIO
    TITLE "8:cjc174_3717"
    INDEX 01 01:07:58
  TRACK 61 AUDIO
    TITLE "0:"
    INDEX 01 01:10:50
  TRACK 62 AUDIO
    TITLE "7:cjc174_3718"
    INDEX 01 01:11:18
  TRACK 63 AUDIO
    TITLE "0:"
    INDEX 01 01:12:20
  TRACK 64 AUDIO
    TITLE "8:cjc174_3719"
    INDEX 01 01:12:67
  TRACK 65 AUDIO
    TITLE "0:"
    INDEX 01 01:15:43
  TRACK 66 AUDIO
    TITLE "7:cjc174_3720"
    INDEX 01 01:16:13
  TRACK 67 AUDIO
    TITLE "0:"
    INDEX 01 01:17:27
  TRACK 68 AUDIO
    TITLE "8:cjc174_3721"
    INDEX 01 01:17:74
  TRACK 69 AUDIO
    TITLE "0:"
    INDEX 01 01:20:25
  TRACK 70 AUDIO
    TITLE "7:cjc174_3722"
    INDEX 01 01:20:68
  TRACK 71 AUDIO
    TITLE "0:"
    INDEX 01 01:22:12
  TRACK 72 AUDIO
    TITLE "8:cjc174_3723"
    INDEX 01 01:22:59
  TRACK 73 AUDIO
    TITLE "0:"
    INDEX 01 01:24:74
